<svg width="214" height="173" viewBox="0 0 214 173" fill="none" xmlns="http://www.w3.org/2000/svg">
<rect width="214" height="173" fill="black"/>
<path d="M28.6731 62.025L39.8931 50.2L39.8381 50.035L36.7581 50.145H29.0581V40.685H55.4031V48.55L44.1831 60.485L44.2381 60.65L47.7581 60.54H55.6781V70H28.6731V62.025ZM75.1477 70.825C71.8477 70.825 68.9144 70.1833 66.3477 68.9C63.781 67.58 61.7827 65.7467 60.3527 63.4C58.9227 61.0533 58.2077 58.3767 58.2077 55.37C58.2077 52.3633 58.9227 49.6867 60.3527 47.34C61.8194 44.9933 63.836 43.1783 66.4027 41.895C68.9694 40.575 71.921 39.915 75.2577 39.915C78.8877 39.915 82.0044 40.6667 84.6077 42.17C87.2477 43.6367 89.2277 45.745 90.5477 48.495C91.8677 51.245 92.436 54.435 92.2527 58.065H70.3627C70.6927 59.385 71.316 60.375 72.2327 61.035C73.1494 61.695 74.2494 62.025 75.5327 62.025C76.4494 62.025 77.2927 61.8783 78.0627 61.585C78.8694 61.255 79.511 60.815 79.9877 60.265H91.7577C90.5477 63.6017 88.476 66.205 85.5427 68.075C82.646 69.9083 79.181 70.825 75.1477 70.825ZM80.4827 52.29C80.116 51.1167 79.511 50.2183 78.6677 49.595C77.8244 48.935 76.761 48.605 75.4777 48.605C74.231 48.605 73.1677 48.9167 72.2877 49.54C71.4077 50.1633 70.7844 51.08 70.4177 52.29H80.4827ZM96.7073 40.685H105.617L106.772 43.655C107.909 42.445 109.247 41.5283 110.787 40.905C112.364 40.245 114.087 39.915 115.957 39.915C117.937 39.915 119.734 40.2817 121.347 41.015C122.961 41.7483 124.281 42.8117 125.307 44.205C126.481 42.8117 127.911 41.7483 129.597 41.015C131.321 40.2817 133.264 39.915 135.427 39.915C137.847 39.915 139.974 40.4283 141.807 41.455C143.641 42.4817 145.052 43.9483 146.042 45.855C147.069 47.725 147.582 49.925 147.582 52.455V70H135.042V53.995C135.042 52.7483 134.731 51.7767 134.107 51.08C133.521 50.3467 132.696 49.98 131.632 49.98C130.569 49.98 129.726 50.3467 129.102 51.08C128.516 51.7767 128.222 52.7667 128.222 54.05V70H116.067V53.995C116.067 52.7483 115.756 51.7767 115.132 51.08C114.546 50.3467 113.721 49.98 112.657 49.98C111.594 49.98 110.751 50.3467 110.127 51.08C109.541 51.7767 109.247 52.7667 109.247 54.05V70H96.7073V40.685ZM168.497 70.825C165.197 70.825 162.264 70.1833 159.697 68.9C157.131 67.58 155.132 65.7467 153.702 63.4C152.272 61.0533 151.557 58.3767 151.557 55.37C151.557 52.3633 152.272 49.6867 153.702 47.34C155.169 44.9933 157.186 43.1783 159.752 41.895C162.319 40.575 165.271 39.915 168.607 39.915C172.237 39.915 175.354 40.6667 177.957 42.17C180.597 43.6367 182.577 45.745 183.897 48.495C185.217 51.245 185.786 54.435 185.602 58.065H163.712C164.042 59.385 164.666 60.375 165.582 61.035C166.499 61.695 167.599 62.025 168.882 62.025C169.799 62.025 170.642 61.8783 171.412 61.585C172.219 61.255 172.861 60.815 173.337 60.265H185.107C183.897 63.6017 181.826 66.205 178.892 68.075C175.996 69.9083 172.531 70.825 168.497 70.825ZM173.832 52.29C173.466 51.1167 172.861 50.2183 172.017 49.595C171.174 48.935 170.111 48.605 168.827 48.605C167.581 48.605 166.517 48.9167 165.637 49.54C164.757 50.1633 164.134 51.08 163.767 52.29H173.832ZM55.0137 143.975C51.0704 143.975 47.5604 143.217 44.4837 141.7C41.4504 140.14 39.0887 137.973 37.3987 135.2C35.7087 132.427 34.8637 129.263 34.8637 125.71C34.8637 122.157 35.7087 118.993 37.3987 116.22C39.132 113.447 41.5154 111.302 44.5487 109.785C47.6254 108.225 51.1137 107.445 55.0137 107.445C58.6104 107.445 61.8387 108.095 64.6987 109.395C67.602 110.652 69.942 112.45 71.7187 114.79C73.4954 117.13 74.5787 119.86 74.9687 122.98H61.2537C60.6904 121.81 59.8887 120.922 58.8487 120.315C57.852 119.708 56.682 119.405 55.3387 119.405C53.5187 119.405 52.0454 119.99 50.9187 121.16C49.8354 122.287 49.2937 123.803 49.2937 125.71C49.2937 127.573 49.8354 129.09 50.9187 130.26C52.0454 131.387 53.5187 131.95 55.3387 131.95C56.7687 131.95 58.0037 131.603 59.0437 130.91C60.127 130.173 60.907 129.177 61.3837 127.92H75.1637C74.7737 131.17 73.6687 134.008 71.8487 136.435C70.072 138.862 67.732 140.725 64.8287 142.025C61.9687 143.325 58.697 143.975 55.0137 143.975ZM80.3632 94.9H95.1832V119.015H95.9632C97.4799 119.015 98.5849 118.798 99.2782 118.365C99.9715 117.932 100.492 117.108 100.838 115.895L103.178 108.355H118.713L113.968 121.68C113.232 123.63 112.365 125.255 111.368 126.555L120.273 143H103.503L97.9132 131.495H95.1832V143H80.3632V94.9ZM124.987 108.355H139.807V143H124.987V108.355ZM123.882 96.265C123.882 93.8383 124.662 91.8883 126.222 90.415C127.782 88.8983 129.841 88.14 132.397 88.14C134.911 88.14 136.947 88.8983 138.507 90.415C140.067 91.8883 140.847 93.8383 140.847 96.265C140.847 98.6917 140.067 100.663 138.507 102.18C136.947 103.697 134.911 104.455 132.397 104.455C129.841 104.455 127.782 103.697 126.222 102.18C124.662 100.663 123.882 98.6917 123.882 96.265ZM162.089 143.975C156.846 143.975 152.686 142.87 149.609 140.66C146.576 138.45 145.059 135.438 145.059 131.625H159.359C159.359 132.492 159.619 133.207 160.139 133.77C160.702 134.333 161.417 134.615 162.284 134.615C163.021 134.615 163.606 134.442 164.039 134.095C164.472 133.705 164.689 133.207 164.689 132.6C164.689 131.82 164.212 131.192 163.259 130.715C162.306 130.195 160.724 129.783 158.514 129.48C154.007 128.83 150.671 127.617 148.504 125.84C146.381 124.063 145.319 121.637 145.319 118.56C145.319 114.963 146.727 112.212 149.544 110.305C152.404 108.398 156.521 107.445 161.894 107.445C167.051 107.445 171.037 108.463 173.854 110.5C176.671 112.537 178.187 115.527 178.404 119.47H164.624C164.581 118.56 164.299 117.867 163.779 117.39C163.259 116.913 162.544 116.675 161.634 116.675C160.897 116.675 160.312 116.848 159.879 117.195C159.489 117.542 159.294 118.018 159.294 118.625C159.294 119.405 159.749 120.012 160.659 120.445C161.569 120.878 163.281 121.29 165.794 121.68C170.214 122.33 173.507 123.565 175.674 125.385C177.884 127.205 178.989 129.632 178.989 132.665C178.989 136.262 177.516 139.057 174.569 141.05C171.622 143 167.462 143.975 162.089 143.975Z" fill="white"/>
</svg>
