<svg width="104" height="28" viewBox="0 0 164 28" fill="none" xmlns="http://www.w3.org/2000/svg">
<path d="M0.14675 22.36L6.67475 15.48L6.64275 15.384L4.85075 15.448H0.37075V9.944H15.6988V14.52L9.17075 21.464L9.20275 21.56L11.2508 21.496H15.8588V27H0.14675V22.36ZM27.1865 27.48C25.2665 27.48 23.5598 27.1067 22.0665 26.36C20.5732 25.592 19.4105 24.5253 18.5785 23.16C17.7465 21.7947 17.3305 20.2373 17.3305 18.488C17.3305 16.7387 17.7465 15.1813 18.5785 13.816C19.4318 12.4507 20.6052 11.3947 22.0985 10.648C23.5918 9.88 25.3092 9.496 27.2505 9.496C29.3625 9.496 31.1758 9.93333 32.6905 10.808C34.2265 11.6613 35.3785 12.888 36.1465 14.488C36.9145 16.088 37.2452 17.944 37.1385 20.056H24.4025C24.5945 20.824 24.9572 21.4 25.4905 21.784C26.0238 22.168 26.6638 22.36 27.4105 22.36C27.9438 22.36 28.4345 22.2747 28.8825 22.104C29.3518 21.912 29.7252 21.656 30.0025 21.336H36.8505C36.1465 23.2773 34.9412 24.792 33.2345 25.88C31.5492 26.9467 29.5332 27.48 27.1865 27.48ZM30.2905 16.696C30.0772 16.0133 29.7252 15.4907 29.2345 15.128C28.7438 14.744 28.1252 14.552 27.3785 14.552C26.6532 14.552 26.0345 14.7333 25.5225 15.096C25.0105 15.4587 24.6478 15.992 24.4345 16.696H30.2905ZM39.7303 9.944H44.9143L45.5863 11.672C46.2476 10.968 47.0263 10.4347 47.9223 10.072C48.8396 9.688 49.8423 9.496 50.9303 9.496C52.0823 9.496 53.1276 9.70933 54.0662 10.136C55.0049 10.5627 55.7729 11.1813 56.3703 11.992C57.0529 11.1813 57.8849 10.5627 58.8663 10.136C59.8689 9.70933 60.9996 9.496 62.2583 9.496C63.6663 9.496 64.9036 9.79467 65.9703 10.392C67.0369 10.9893 67.8583 11.8427 68.4343 12.952C69.0316 14.04 69.3303 15.32 69.3303 16.792V27H62.0343V17.688C62.0343 16.9627 61.8529 16.3973 61.4903 15.992C61.1489 15.5653 60.6689 15.352 60.0503 15.352C59.4316 15.352 58.9409 15.5653 58.5783 15.992C58.2369 16.3973 58.0663 16.9733 58.0663 17.72V27H50.9943V17.688C50.9943 16.9627 50.8129 16.3973 50.4503 15.992C50.1089 15.5653 49.6289 15.352 49.0103 15.352C48.3916 15.352 47.9009 15.5653 47.5383 15.992C47.1969 16.3973 47.0263 16.9733 47.0263 17.72V27H39.7303V9.944ZM81.499 27.48C79.579 27.48 77.8723 27.1067 76.379 26.36C74.8857 25.592 73.723 24.5253 72.891 23.16C72.059 21.7947 71.643 20.2373 71.643 18.488C71.643 16.7387 72.059 15.1813 72.891 13.816C73.7443 12.4507 74.9177 11.3947 76.411 10.648C77.9043 9.88 79.6217 9.496 81.563 9.496C83.675 9.496 85.4883 9.93333 87.003 10.808C88.539 11.6613 89.691 12.888 90.459 14.488C91.227 16.088 91.5577 17.944 91.451 20.056H78.715C78.907 20.824 79.2697 21.4 79.803 21.784C80.3363 22.168 80.9763 22.36 81.723 22.36C82.2563 22.36 82.747 22.2747 83.195 22.104C83.6643 21.912 84.0377 21.656 84.315 21.336H91.163C90.459 23.2773 89.2537 24.792 87.547 25.88C85.8617 26.9467 83.8457 27.48 81.499 27.48ZM84.603 16.696C84.3897 16.0133 84.0377 15.4907 83.547 15.128C83.0563 14.744 82.4377 14.552 81.691 14.552C80.9657 14.552 80.347 14.7333 79.835 15.096C79.323 15.4587 78.9603 15.992 78.747 16.696H84.603ZM102.907 27.48C100.965 27.48 99.2374 27.1067 97.7228 26.36C96.2294 25.592 95.0668 24.5253 94.2348 23.16C93.4028 21.7947 92.9868 20.2373 92.9868 18.488C92.9868 16.7387 93.4028 15.1813 94.2348 13.816C95.0881 12.4507 96.2614 11.3947 97.7548 10.648C99.2694 9.88 100.987 9.496 102.907 9.496C104.677 9.496 106.267 9.816 107.675 10.456C109.104 11.0747 110.256 11.96 111.131 13.112C112.005 14.264 112.539 15.608 112.731 17.144H105.979C105.701 16.568 105.307 16.1307 104.795 15.832C104.304 15.5333 103.728 15.384 103.067 15.384C102.171 15.384 101.445 15.672 100.891 16.248C100.357 16.8027 100.091 17.5493 100.091 18.488C100.091 19.4053 100.357 20.152 100.891 20.728C101.445 21.2827 102.171 21.56 103.067 21.56C103.771 21.56 104.379 21.3893 104.891 21.048C105.424 20.6853 105.808 20.1947 106.043 19.576H112.827C112.635 21.176 112.091 22.5733 111.195 23.768C110.32 24.9627 109.168 25.88 107.739 26.52C106.331 27.16 104.72 27.48 102.907 27.48ZM115.387 3.32H122.683V15.192H123.067C123.813 15.192 124.357 15.0853 124.699 14.872C125.04 14.6587 125.296 14.2533 125.467 13.656L126.619 9.944H134.267L131.931 16.504C131.568 17.464 131.141 18.264 130.651 18.904L135.035 27H126.779L124.027 21.336H122.683V27H115.387V3.32ZM137.355 9.944H144.651V27H137.355V9.944ZM136.811 3.992C136.811 2.79733 137.195 1.83733 137.963 1.112C138.731 0.365332 139.745 -0.00800133 141.003 -0.00800133C142.241 -0.00800133 143.243 0.365332 144.011 1.112C144.779 1.83733 145.163 2.79733 145.163 3.992C145.163 5.18667 144.779 6.15733 144.011 6.904C143.243 7.65067 142.241 8.024 141.003 8.024C139.745 8.024 138.731 7.65067 137.963 6.904C137.195 6.15733 136.811 5.18667 136.811 3.992ZM155.621 27.48C153.039 27.48 150.991 26.936 149.477 25.848C147.983 24.76 147.237 23.2773 147.237 21.4H154.277C154.277 21.8267 154.405 22.1787 154.661 22.456C154.938 22.7333 155.29 22.872 155.717 22.872C156.079 22.872 156.367 22.7867 156.581 22.616C156.794 22.424 156.901 22.1787 156.901 21.88C156.901 21.496 156.666 21.1867 156.197 20.952C155.727 20.696 154.949 20.4933 153.861 20.344C151.642 20.024 149.999 19.4267 148.933 18.552C147.887 17.6773 147.365 16.4827 147.365 14.968C147.365 13.1973 148.058 11.8427 149.445 10.904C150.853 9.96533 152.879 9.496 155.525 9.496C158.063 9.496 160.026 9.99733 161.413 11C162.799 12.0027 163.546 13.4747 163.653 15.416H156.869C156.847 14.968 156.709 14.6267 156.453 14.392C156.197 14.1573 155.845 14.04 155.397 14.04C155.034 14.04 154.746 14.1253 154.533 14.296C154.341 14.4667 154.245 14.7013 154.245 15C154.245 15.384 154.469 15.6827 154.917 15.896C155.365 16.1093 156.207 16.312 157.445 16.504C159.621 16.824 161.242 17.432 162.309 18.328C163.397 19.224 163.941 20.4187 163.941 21.912C163.941 23.6827 163.215 25.0587 161.765 26.04C160.314 27 158.266 27.48 155.621 27.48Z" fill="white"/>
</svg>
